<svg xmlns="http://www.w3.org/2000/svg" viewBox="0 0 640 640" role="img" aria-labelledby="title desc">
  <title id="title">Audio Systems Specialist avatar</title>
  <desc id="desc">Default professional team avatar for audio systems specialist</desc>
  <rect width="640" height="640" fill="#e6f6f4"/>
  <path d="M0 500c96-70 204-104 324-101 126 3 231 45 316 126v115H0V500Z" fill="#38aab8"/>
  <circle cx="320" cy="254" r="114" fill="#efbd97"/>
  <path d="M206 226c10-82 59-128 132-128 68 0 113 42 120 119-75-28-153-25-252 9Z" fill="#1e2528"/>
  <path d="M198 446c42-48 83-73 122-73 40 0 81 25 122 73v194H198V446Z" fill="#101719"/>
  <path d="M266 392h108v64c-26 25-82 25-108 0v-64Z" fill="#e8a982"/>
  <path d="M238 470h164l-37 170h-90l-37-170Z" fill="#ffffff"/>
  <path d="M290 468h60l12 172h-84l12-172Z" fill="#087b70"/>
  <path d="M466 154c39 27 62 71 62 118s-23 91-62 118" fill="none" stroke="#087b70" stroke-width="22" stroke-linecap="round"/>
  <path d="M432 202c21 15 34 40 34 70s-13 55-34 70" fill="none" stroke="#38aab8" stroke-width="18" stroke-linecap="round"/>
  <path d="M154 254h62l76-74v184l-76-74h-62v-36Z" fill="#087b70"/>
  <path d="M170 498h48v62h-48v-62Zm252 0h48v62h-48v-62Z" fill="#dff8f5"/>
</svg>
